<?xml version="1.0" encoding="utf-8"?>
<!-- Generator: Adobe Illustrator 24.1.0, SVG Export Plug-In . SVG Version: 6.00 Build 0)  -->
<svg version="1.1" id="Layer_1" xmlns="http://www.w3.org/2000/svg" xmlns:xlink="http://www.w3.org/1999/xlink" x="0px" y="0px"
	 width="131.18px" height="51.67px" viewBox="0 0 131.18 51.67" style="enable-background:new 0 0 131.18 51.67;"
	 xml:space="preserve">
<style type="text/css">
	.st0{fill:#FFFFFF;}
	.st1{fill:#FBFBFB;}
</style>
<g>
	<path class="st0" d="M21.06,41.97c-0.33-0.22-0.54-0.55-0.67-0.86c-0.32,0.34-0.8,0.74-1.34,0.91c-0.09,0.03-0.21,0.06-0.36,0.06
		c-0.18,0-0.4-0.05-0.59-0.2c-0.15-0.1-0.24-0.24-0.32-0.4c-0.08-0.19-0.13-0.41-0.12-0.68c0-0.38,0.08-0.79,0.24-1.07
		c0.13-0.24,0.29-0.46,0.45-0.61c0.18-0.22,0.34-0.29,0.54-0.27c0.12,0.02,0.24,0.08,0.32,0.18c0.13,0.14,0.16,0.26,0.07,0.34
		c-0.03,0.04-0.14,0.11-0.38,0.04c-0.12,0.12-0.26,0.32-0.41,0.59c-0.15,0.25-0.24,0.61-0.24,0.96c0.01,0.39,0.12,0.61,0.18,0.67
		c0.03,0.01,0.11,0.02,0.28-0.02c0.79-0.25,1.5-1.18,1.55-1.29c0.03-0.09,0.18-0.12,0.33-0.06c0.16,0.06,0.26,0.18,0.24,0.28
		c-0.01,0.1,0.05,0.42,0.18,0.7c0.08,0.19,0.2,0.35,0.33,0.45c0.05,0.03,0.21,0.13,0.54,0.02c0.7-0.21,1.26-1.11,1.52-1.83
		c-0.04-0.09-0.08-0.19-0.11-0.26c-0.05-0.21-0.26-0.9,0.08-1.02c0.11-0.04,0.24-0.03,0.36,0.03c0.18,0.09,0.32,0.27,0.38,0.55
		c0.04,0.19,0,0.48-0.09,0.81c0.15,0.22,0.32,0.36,0.45,0.42c0.21,0.08,0.98,0.15,1.59-0.61c0.08-0.08,0.25-0.08,0.4,0.01
		c0.14,0.08,0.2,0.22,0.13,0.3c-0.33,0.39-0.7,0.62-1.16,0.73c-0.15,0.04-0.29,0.06-0.45,0.06c-0.21,0-0.43-0.04-0.61-0.11
		c-0.2-0.07-0.38-0.18-0.54-0.32l-0.15,0.29c-0.22,0.42-0.71,1.16-1.44,1.37c-0.17,0.05-0.3,0.07-0.45,0.07
		C21.48,42.19,21.23,42.08,21.06,41.97z"/>
	<path class="st0" d="M26.59,42.06c-0.33-0.12-0.59-0.31-0.75-0.55c-0.18-0.25-0.22-0.52-0.22-0.75c0-0.48,0.3-0.87,0.7-1.28
		c0.5-0.49,1.16-0.9,1.7-0.9c0.42,0,0.71,0.16,0.86,0.47c0.15,0.31-0.12,0.64-0.83,1.04c-0.47,0.26-1.13,0.55-1.83,0.8
		c-0.01,0.18,0.01,0.36,0.13,0.53c0.08,0.11,0.2,0.2,0.36,0.26c0.09,0.03,0.33,0.09,0.76,0.03c0.34-0.05,0.74-0.17,1.16-0.33
		c0.88-0.36,1.71-0.95,2.27-1.59c0.07-0.08,0.25-0.07,0.4,0.01c0.14,0.08,0.21,0.21,0.14,0.29c-0.57,0.67-1.46,1.3-2.41,1.69
		c-0.4,0.18-1.07,0.4-1.71,0.4C27.06,42.17,26.81,42.14,26.59,42.06z M28.21,39.02c-0.45,0-1.24,0.58-1.71,1.21
		c0.42-0.18,0.79-0.35,1.08-0.52c0.69-0.37,0.76-0.6,0.74-0.66l-0.01-0.03H28.21z"/>
	<path class="st0" d="M31.45,42.22c-0.26-0.17-0.46-0.4-0.59-0.68c-0.04-0.1-0.08-0.22-0.11-0.33c-0.25-0.93,0.47-2.62,1.05-3.81
		l0.01-0.06c0.67-1.46,1.26-2.51,1.78-3.19c0.59-0.8,1.11-1.12,1.63-1.04c0.28,0.04,0.51,0.16,0.66,0.33
		c0.41,0.45,0.26,1.22-0.42,2.32c-0.94,1.55-2.31,3.04-4.03,4.44c-0.03,0.01-0.04,0.02-0.05,0.02c-0.11,0.41-0.13,0.78-0.07,1.06
		c0.07,0.21,0.17,0.49,0.42,0.66c0.18,0.11,0.42,0.18,0.71,0.18c0.66,0,1.37-0.46,1.94-1.23c0.13-0.19,0.37-0.66,0.45-0.96
		c-0.09-0.12-0.16-0.23-0.18-0.31c-0.09-0.27-0.05-0.44,0.09-0.5c0.11-0.03,0.24-0.01,0.37,0.06c0.13,0.07,0.21,0.18,0.26,0.29
		c0.07,0.14,0.08,0.28,0.09,0.39l-0.01,0.1c0.05,0.04,0.11,0.07,0.16,0.11c0.21,0.14,0.46,0.2,0.75,0.2c0.46,0,0.9-0.19,1.13-0.49
		c0.07-0.09,0.24-0.09,0.4,0c0.14,0.08,0.21,0.22,0.14,0.3c-0.33,0.4-0.87,0.62-1.48,0.62c-0.55,0-0.96-0.19-1.23-0.34
		c-0.12,0.32-0.3,0.68-0.41,0.82c-0.3,0.41-1.12,1.36-2.28,1.36C32.2,42.56,31.79,42.44,31.45,42.22z M35.28,33.54
		c-0.14,0-0.54,0.09-1.15,0.92c-0.51,0.67-1.08,1.7-1.77,3.14l-0.01,0.06c-0.16,0.3-0.44,0.91-0.67,1.56
		c1.36-1.2,2.45-2.45,3.24-3.74c0.71-1.16,0.66-1.74,0.51-1.9c-0.01-0.02-0.04-0.04-0.12-0.05H35.28z"/>
	<path class="st0" d="M45.74,42.23c-0.22-0.02-0.44-0.11-0.62-0.25c-0.13-0.1-0.21-0.23-0.28-0.36c-0.17-0.39-0.18-0.87-0.16-1.11
		c-0.25,0.26-0.51,0.51-0.82,0.74c-0.75,0.55-1.62,0.9-2.25,0.9h-0.09c-0.42-0.02-0.79-0.2-1.01-0.47
		c-0.26-0.32-0.32-0.78-0.14-1.22c0.13-0.34,0.4-0.69,0.76-1c0.67-0.55,1.44-0.86,2.04-0.89c0.45-0.02,0.9,0.12,1.23,0.4
		c0.11,0.08,0.24,0.21,0.34,0.37c0.09-0.17,0.17-0.34,0.25-0.53c0.03-0.14,0.07-0.27,0.13-0.41c-0.01-0.01,0-0.02,0-0.04l0.04-0.07
		c0.32-0.91,0.91-2.18,1.52-3.23c1.09-1.93,1.5-1.96,1.66-1.96c0.16-0.01,0.33,0.08,0.38,0.2c0.08,0.12,0.01,0.22-0.13,0.23
		c-0.14,0.04-0.61,0.47-1.4,1.86c-0.58,1.03-1.15,2.26-1.45,3.12l-0.08,0.23l-0.07,0.23c-0.17,0.58-0.28,1.15-0.32,1.62
		c-0.05,0.91,0.18,1.14,0.22,1.16c0.01,0.02,0.04,0.03,0.09,0.04c0.32,0.02,0.86-0.28,1.49-0.81c0.55-0.49,1-1.02,1.13-1.2
		c0.07-0.08,0.24-0.09,0.38-0.01c0.16,0.08,0.21,0.22,0.16,0.31c-0.13,0.19-0.61,0.74-1.19,1.24c-0.7,0.6-1.26,0.91-1.74,0.91H45.74
		z M43.41,39.01c-0.38,0.01-1.05,0.23-1.77,0.82c-0.37,0.3-0.62,0.67-0.72,1.01c-0.09,0.29-0.07,0.55,0.07,0.71
		c0.04,0.04,0.12,0.14,0.38,0.16c0.42,0.02,1.21-0.23,2.02-0.82c0.38-0.27,0.7-0.59,0.96-0.94c0.03-0.17,0.01-0.31-0.05-0.45
		c-0.05-0.11-0.13-0.21-0.24-0.29c-0.17-0.14-0.38-0.2-0.62-0.2H43.41z"/>
	<path class="st0" d="M48.76,42.06c-0.33-0.12-0.59-0.31-0.75-0.55c-0.18-0.25-0.22-0.52-0.22-0.75c0-0.48,0.3-0.87,0.7-1.28
		c0.5-0.49,1.16-0.9,1.7-0.9c0.42,0,0.71,0.16,0.86,0.47c0.15,0.31-0.12,0.64-0.83,1.04c-0.47,0.26-1.13,0.55-1.83,0.8
		c-0.01,0.18,0.01,0.36,0.13,0.53c0.08,0.11,0.2,0.2,0.36,0.26c0.09,0.03,0.33,0.09,0.76,0.03c0.34-0.05,0.74-0.17,1.16-0.33
		c0.88-0.36,1.71-0.95,2.27-1.59c0.07-0.08,0.25-0.07,0.4,0.01c0.14,0.08,0.21,0.21,0.14,0.29c-0.57,0.67-1.46,1.3-2.41,1.69
		c-0.4,0.18-1.07,0.4-1.71,0.4C49.24,42.17,48.98,42.14,48.76,42.06z M50.38,39.02c-0.45,0-1.24,0.58-1.71,1.21
		c0.42-0.18,0.79-0.35,1.08-0.52c0.69-0.37,0.76-0.6,0.74-0.66l-0.01-0.03H50.38z"/>
	<path class="st0" d="M54.27,42.12c-0.47-0.15-0.67-0.65-0.75-0.8c-0.13-0.33-0.22-0.77-0.29-1.21c0-0.01-0.01-0.01-0.01-0.01
		c-0.16-0.09-0.22-0.23-0.16-0.31l0.15-0.18c0-0.74,0.21-0.81,0.29-0.84c0.13-0.04,0.3-0.01,0.45,0.08
		c0.22,0.15,0.28,0.34,0.16,0.58c-0.08,0.14-0.2,0.28-0.3,0.42v0.05c0.01,0.41,0.11,0.87,0.22,1.24c0.11,0.36,0.24,0.53,0.28,0.57
		c0.05,0,0.24-0.01,0.58-0.2c0.29-0.17,0.62-0.4,0.94-0.69c0.46-0.4,0.86-0.82,1.09-1.19c-0.13-0.3-0.14-0.64-0.07-0.96
		c0.05-0.16,0.13-0.32,0.34-0.32c0.12,0,0.26,0.05,0.36,0.14c0.24,0.2,0.26,0.61,0.17,0.93c-0.03,0.09-0.09,0.23-0.17,0.39
		c0.05,0.09,0.12,0.18,0.22,0.26c0.15,0.12,0.33,0.19,0.57,0.18c0.16,0,0.54-0.17,0.78-0.46c0.08-0.08,0.25-0.07,0.39,0.01
		c0.15,0.08,0.2,0.2,0.15,0.29c-0.28,0.35-0.8,0.59-1.11,0.59c-0.41,0.02-0.83-0.12-1.16-0.4l-0.12-0.1
		c-0.24,0.3-0.55,0.66-0.99,1.03c-0.36,0.3-0.7,0.55-1,0.72c-0.3,0.15-0.54,0.22-0.75,0.22C54.43,42.15,54.33,42.14,54.27,42.12z"/>
	<path class="st0" d="M59.64,42.06c-0.33-0.12-0.59-0.31-0.75-0.55c-0.18-0.25-0.22-0.52-0.22-0.75c0-0.48,0.3-0.87,0.7-1.28
		c0.5-0.49,1.16-0.9,1.7-0.9c0.42,0,0.71,0.16,0.86,0.47c0.14,0.31-0.12,0.64-0.83,1.04c-0.47,0.26-1.13,0.55-1.83,0.8
		c-0.01,0.18,0.01,0.36,0.13,0.53c0.08,0.11,0.2,0.2,0.36,0.26c0.09,0.03,0.33,0.09,0.76,0.03c0.34-0.05,0.74-0.17,1.16-0.33
		c0.88-0.36,1.71-0.95,2.27-1.59c0.07-0.08,0.25-0.07,0.4,0.01c0.14,0.08,0.21,0.21,0.14,0.29c-0.57,0.67-1.46,1.3-2.41,1.69
		c-0.4,0.18-1.07,0.4-1.71,0.4C60.12,42.17,59.87,42.14,59.64,42.06z M61.26,39.02c-0.45,0-1.24,0.58-1.71,1.21
		c0.42-0.18,0.79-0.35,1.08-0.52c0.69-0.37,0.76-0.6,0.74-0.66l-0.01-0.03H61.26z"/>
	<path class="st0" d="M65.23,42.29c-0.3-0.01-0.61-0.1-0.88-0.28c-0.17-0.11-0.3-0.27-0.4-0.47c-0.11-0.22-0.14-0.49-0.14-0.83
		c0.01-0.51,0.13-1.14,0.34-1.87c0.42-1.33,1.17-2.88,1.91-3.97c0.51-0.76,1-1.32,1.42-1.67c0.46-0.39,0.82-0.49,1.16-0.32
		c0.16,0.08,0.25,0.2,0.3,0.31c0.08,0.17,0.08,0.33,0.08,0.42c-0.01,0.27-0.11,0.61-0.26,1c-1.09,2.56-3.41,5.12-4.34,5.95
		c-0.03,0.1-0.03,0.21-0.03,0.3c0,0.68,0.21,0.85,0.25,0.87c0.07,0.05,0.2,0.11,0.41,0.13c0.94,0.02,2.29-1.04,3.06-2.06
		c0.07-0.08,0.25-0.09,0.4-0.01c0.14,0.09,0.21,0.23,0.14,0.31c-0.45,0.56-1,1.1-1.54,1.5c-0.67,0.46-1.28,0.7-1.83,0.7H65.23z
		 M66.6,35.15c-0.74,1.06-1.46,2.59-1.87,3.9l-0.12,0.48c1.07-1.15,2.73-3.17,3.58-5.19c0.25-0.59,0.26-0.94,0.24-1.09
		C68.22,33.33,67.64,33.65,66.6,35.15z"/>
	<path class="st0" d="M68.05,41.72c-0.13-0.09-0.29-0.24-0.38-0.45c-0.09-0.2-0.14-0.48-0.04-0.79c0.14-0.45,0.74-1.15,1.9-1.66
		c0.08-0.02,0.5-0.18,0.98-0.18c0.18,0,0.38,0.03,0.57,0.09c0.24,0.08,0.45,0.24,0.57,0.44c0.08,0.12,0.03,0.23-0.11,0.25
		c-0.16,0.01-0.34-0.07-0.41-0.19c-0.05-0.07-0.11-0.1-0.15-0.11c-0.16-0.06-0.58-0.06-1,0.11c-1.01,0.44-1.61,1.06-1.75,1.49
		c-0.11,0.31-0.05,0.58,0.17,0.75c0.21,0.16,0.58,0.22,0.96,0.16c1.15-0.18,1.88-0.91,2.19-1.47c-0.07-0.06-0.11-0.14-0.16-0.21
		c-0.08-0.17-0.03-0.31,0.13-0.39c0.25-0.11,0.46,0,0.54,0.05c0.18,0.14,0.2,0.32,0.17,0.45l-0.01,0.08
		c0.05,0.03,0.12,0.05,0.18,0.07c0.19,0.07,0.49,0.15,0.83,0.08c0.37-0.05,0.7-0.24,0.99-0.53c0.07-0.08,0.25-0.07,0.4,0.02
		c0.15,0.08,0.21,0.2,0.15,0.28c-0.05,0.06-0.12,0.13-0.19,0.17c-0.39,0.34-0.87,0.52-1.4,0.52c-0.24,0-0.49-0.03-0.72-0.1
		c-0.15-0.04-0.26-0.09-0.38-0.15c-0.37,0.64-1.19,1.34-2.41,1.54c-0.15,0.02-0.26,0.03-0.4,0.03
		C68.81,42.1,68.36,41.96,68.05,41.72z"/>
	<path class="st0" d="M72.38,48.66c-0.18-0.04-0.37-0.14-0.47-0.27c-0.28-0.29-0.28-0.76-0.01-1.6c0.17-0.54,0.42-1.21,0.74-1.92
		l0.36-1.47c0.33-1.17,0.66-2.23,0.95-3l0.16-0.41c0.08-0.18,0.15-0.32,0.2-0.44c0.29-0.6,0.45-0.65,0.54-0.68
		c0.13-0.04,0.28-0.01,0.41,0.07c0.13,0.08,0.21,0.18,0.24,0.27c0.07,0.17-0.07,0.27-0.22,0.42c-0.16,0.14-0.38,0.31-0.59,0.61
		l-0.18,0.46l-0.12,0.36c0.36-0.6,0.9-1.18,1.45-1.61c0.49-0.39,1.25-0.84,2.07-0.84c0.42,0,0.82,0.18,1.09,0.48
		c0.09,0.1,0.14,0.21,0.2,0.32c0.22,0.47,0.2,1.05-0.05,1.52c0.73-0.23,1.42-0.57,1.92-1.16c0.08-0.08,0.25-0.07,0.4,0.01
		c0.14,0.08,0.21,0.2,0.14,0.29c-0.12,0.14-0.25,0.27-0.38,0.39c-0.79,0.67-1.84,0.96-2.77,1.16c-0.36,0.22-0.74,0.36-0.94,0.4
		c-0.2,0.04-0.5-0.02-0.63-0.22c-0.13-0.16-0.08-0.34,0.25-0.41c0.12-0.03,0.25-0.05,0.38-0.07l0.53-0.1
		c0.08-0.04,0.13-0.08,0.18-0.14c0.61-0.47,0.67-1.43,0.3-1.85c-0.09-0.09-0.2-0.18-0.44-0.18c-0.53,0-1.15,0.27-1.78,0.76
		c-0.59,0.46-1.12,1.08-1.49,1.71c-0.34,0.59-0.65,1.28-0.98,2.04l-0.43,1.07l-0.2,0.44c-0.14,0.6-0.26,1.17-0.37,1.68
		c-0.25,1.31-0.2,1.61-0.18,1.68c0.01,0.02,0.01,0.04,0.01,0.06c0,0,0,0.01,0,0.02c0,0.09-0.08,0.16-0.2,0.16
		C72.43,48.67,72.41,48.67,72.38,48.66z"/>
	<path class="st0" d="M81.22,42.06c-0.16-0.08-0.21-0.21-0.17-0.3c0.07-0.12,0.4-0.76,0.69-1.42c0.16-0.39,0.26-0.68,0.32-0.89
		c-0.04,0.06-0.09,0.14-0.14,0.19c-0.12,0.16-0.22,0.32-0.33,0.45c-0.07,0.09-0.25,0.09-0.4,0c-0.14-0.08-0.21-0.22-0.14-0.3
		c0.12-0.12,0.22-0.29,0.33-0.44c0.47-0.65,0.61-0.81,0.86-0.78c0.12,0.01,0.24,0.06,0.32,0.15c0.17,0.17,0.32,0.44-0.13,1.57
		l0.05-0.04c1.08-1.01,1.57-1.07,1.88-1.02c0.13,0.03,0.38,0.1,0.55,0.37c0.13,0.19,0.22,0.45,0.25,0.77
		c0.17-0.17,0.33-0.34,0.51-0.5c0.88-0.81,1.34-0.79,1.62-0.7c0.38,0.11,0.57,0.42,0.75,0.8c0.05,0.14,0.13,0.29,0.18,0.45
		c0.07,0.16,0.13,0.33,0.21,0.5c0.14,0.33,0.34,0.65,0.55,0.68c0.58,0.09,1.62-0.64,2.61-1.81c0.07-0.09,0.25-0.08,0.4,0
		c0.14,0.08,0.21,0.21,0.14,0.3c-0.25,0.29-0.78,0.87-1.37,1.32c-0.65,0.49-1.2,0.69-1.7,0.61c-0.38-0.06-0.71-0.29-0.96-0.69
		c-0.09-0.14-0.16-0.27-0.22-0.42c-0.08-0.17-0.14-0.34-0.22-0.52c-0.08-0.22-0.16-0.42-0.25-0.58c-0.09-0.17-0.16-0.23-0.18-0.25
		c-0.12,0-0.55,0.15-1.26,0.83c-0.36,0.37-0.65,0.73-0.76,0.96c-0.01,0.03-0.01,0.05-0.01,0.07c-0.03,0.28-0.05,0.31-0.11,0.34
		c-0.08,0.05-0.22,0.04-0.36-0.03c-0.3-0.18-0.2-0.43-0.16-0.53l0.04-0.07c0-0.17,0.03-0.36,0-0.58c-0.03-0.62-0.17-0.84-0.22-0.91
		c-0.11,0-0.5,0.08-1.4,0.93c-0.65,0.59-1.21,1.27-1.38,1.47c-0.04,0.04-0.09,0.06-0.16,0.06C81.37,42.11,81.29,42.09,81.22,42.06z"
		/>
	<path class="st0" d="M92.13,42.06c-0.33-0.12-0.59-0.31-0.75-0.55c-0.18-0.25-0.22-0.52-0.22-0.75c0-0.48,0.3-0.87,0.7-1.28
		c0.5-0.49,1.16-0.9,1.7-0.9c0.42,0,0.71,0.16,0.86,0.47c0.14,0.31-0.12,0.64-0.83,1.04c-0.47,0.26-1.13,0.55-1.83,0.8
		c-0.01,0.18,0.01,0.36,0.13,0.53c0.08,0.11,0.2,0.2,0.36,0.26c0.09,0.03,0.33,0.09,0.76,0.03c0.34-0.05,0.74-0.17,1.16-0.33
		c0.88-0.36,1.71-0.95,2.27-1.59c0.07-0.08,0.25-0.07,0.4,0.01c0.14,0.08,0.21,0.21,0.14,0.29c-0.57,0.67-1.46,1.3-2.41,1.69
		c-0.4,0.18-1.07,0.4-1.71,0.4C92.6,42.17,92.35,42.14,92.13,42.06z M93.75,39.02c-0.45,0-1.24,0.58-1.71,1.21
		c0.42-0.18,0.79-0.35,1.08-0.52c0.69-0.37,0.76-0.6,0.74-0.66l-0.01-0.03H93.75z"/>
	<path class="st0" d="M96.46,42.08c-0.13-0.06-0.22-0.18-0.21-0.27c0-0.05,0.03-0.1,0.28-0.58c0.22-0.41,0.51-0.97,0.76-1.48
		c0.04-0.08,0.07-0.16,0.09-0.23l-0.22,0.3l-0.2,0.27c-0.08,0.08-0.25,0.09-0.41,0c-0.14-0.08-0.21-0.22-0.13-0.3
		c0.05-0.06,0.14-0.16,0.22-0.27c0.16-0.22,0.34-0.48,0.53-0.7c0.28-0.33,0.45-0.46,0.71-0.37c0.07,0.02,0.25,0.09,0.32,0.29
		c0.07,0.26-0.13,0.82-0.57,1.68c0.2-0.17,0.42-0.32,0.62-0.47c1.42-1.02,1.85-0.9,2.02-0.85c0.43,0.13,0.54,0.51,0.59,0.64
		c0.05,0.22,0.09,0.49,0.12,0.77c0.04,0.26,0.07,0.52,0.12,0.75c0.08,0.29,0.17,0.36,0.19,0.37l0.07,0.02
		c0.72,0.02,1.83-0.95,2.54-1.85c0.07-0.08,0.25-0.09,0.4,0c0.14,0.08,0.21,0.22,0.14,0.3c-0.08,0.1-0.49,0.6-1.03,1.08
		c-0.68,0.6-1.28,0.91-1.83,0.91h-0.04c-0.26-0.01-0.46-0.11-0.58-0.2c-0.14-0.11-0.25-0.25-0.32-0.42
		c-0.14-0.3-0.18-0.69-0.24-1.08c-0.03-0.23-0.07-0.44-0.11-0.61c-0.03-0.15-0.05-0.22-0.08-0.26c-0.13,0.02-0.58,0.14-1.54,0.84
		c-0.74,0.53-1.46,1.2-1.87,1.7c-0.04,0.04-0.11,0.06-0.17,0.06C96.58,42.11,96.53,42.1,96.46,42.08z"/>
	<path class="st0" d="M99.19,36.53c-0.16-0.01-0.33-0.11-0.37-0.24c-0.04-0.11,0.04-0.21,0.2-0.2c0.36,0.02,0.82,0.02,1.38,0.02
		c1.34,0,3.18-0.04,5.11-0.1c0.67-1.14,1.46-2.2,2.23-3.04c0.08-0.07,0.25-0.07,0.4,0.02c0.14,0.08,0.2,0.23,0.12,0.3
		c-0.61,0.68-1.32,1.62-1.95,2.69c3.49-0.14,7.19-0.34,8.97-0.55c0.15-0.01,0.33,0.07,0.41,0.19c0.07,0.13,0.01,0.23-0.12,0.25
		c-1.58,0.18-4.78,0.37-8.37,0.52l-1.17,0.05l-0.11,0.2c-0.73,1.29-1.24,2.49-1.42,3.29l-0.04,0.15c-0.09,0.42-0.28,1.19,0.03,1.5
		c0.03,0.03,0.09,0.08,0.21,0.11c0.17,0.04,0.63,0,1.25-0.26c0.53-0.23,1.33-0.69,2.12-1.63c0.08-0.08,0.25-0.08,0.4,0
		s0.21,0.22,0.14,0.3c-1.25,1.47-2.7,2.04-3.57,2.04c-0.12,0-0.24-0.01-0.34-0.04c-0.26-0.06-0.49-0.19-0.66-0.36
		c-0.34-0.37-0.34-0.91-0.26-1.38c0.22-1.25,0.76-2.6,1.48-3.88c-1.79,0.06-3.39,0.09-4.59,0.09
		C100.06,36.55,99.56,36.54,99.19,36.53z"/>
</g>
<g>
	<path class="st1" d="M15.49,24.6l-1.76,5.09h-1.68L10.3,24.6l-0.6,6.23H8l0.72-6.54c0.07-0.59,0.34-1,0.83-1.23
		c0.2-0.09,0.41-0.13,0.63-0.13c0.48,0,0.84,0.18,1.09,0.55c0.06,0.09,0.11,0.19,0.16,0.29l1.47,4.3l1.47-4.3
		c0.16-0.43,0.47-0.69,0.92-0.8c0.11-0.03,0.22-0.04,0.32-0.04c0.5,0,0.89,0.19,1.17,0.58c0.16,0.23,0.25,0.49,0.29,0.79l0.72,6.54
		h-1.7L15.49,24.6z"/>
	<path class="st1" d="M24,29.79h-3.44l0.85-1.36h2.12l-1.34-3.86l-2.19,6.26h-1.7l2.31-6.57c0.34-0.92,0.86-1.38,1.58-1.39
		c0.72,0.01,1.24,0.47,1.57,1.39l2.32,6.57h-1.7L24,29.79z"/>
	<path class="st1" d="M28.53,24.34v6.49h-1.58v-6.47c0-0.47,0.2-0.84,0.6-1.12c0.27-0.18,0.57-0.27,0.89-0.27h2.14
		c0.96,0,1.73,0.29,2.31,0.86c0.49,0.49,0.73,1.09,0.73,1.81v0.3c0,0.9-0.35,1.59-1.06,2.09c-0.27,0.19-0.57,0.33-0.89,0.42
		l2.13,2.38h-1.97l-1.96-2.22h-1.22l0.85-1.36h1.1c0.65,0,1.09-0.22,1.31-0.67c0.09-0.19,0.13-0.4,0.13-0.63v-0.3
		c0-0.62-0.28-1.02-0.84-1.21c-0.19-0.06-0.39-0.09-0.61-0.09H28.53z"/>
	<path class="st1" d="M34.99,22.98h1.6v3.29h1.01l2.01-3.29h1.8l-2.49,3.93l2.6,3.93h-1.81l-2.06-3.2h-1.06v3.2h-1.6V22.98z"/>
	<path class="st1" d="M50.73,29.79h-3.44l0.85-1.36h2.12l-1.34-3.86l-2.19,6.26h-1.7l2.31-6.57c0.34-0.92,0.86-1.38,1.58-1.39
		c0.72,0.01,1.24,0.47,1.57,1.39l2.32,6.57h-1.7L50.73,29.79z"/>
	<path class="st1" d="M53.26,30.4c0-0.36,0.15-0.63,0.45-0.83c0.17-0.1,0.34-0.16,0.53-0.16c0.36,0,0.63,0.15,0.83,0.45
		c0.1,0.17,0.16,0.34,0.16,0.53c0,0.36-0.15,0.63-0.45,0.83c-0.17,0.1-0.34,0.16-0.53,0.16c-0.36,0-0.63-0.15-0.83-0.45
		C53.31,30.76,53.26,30.59,53.26,30.4z"/>
	<path class="st1" d="M61.15,29.47h3.74l0.73,1.36h-4.57c-0.51,0-0.91-0.19-1.21-0.58c-0.19-0.24-0.28-0.51-0.28-0.81v-6.47h1.58
		V29.47z"/>
	<path class="st1" d="M66.3,22.98h1.58v7.86H66.3V22.98z"/>
	<path class="st1" d="M71.42,22.98l-0.85,1.36h-1.56v-1.36H71.42z M72.71,30.83h-1.59v-6.47c0-0.46,0.2-0.83,0.6-1.11
		c0.27-0.19,0.57-0.28,0.9-0.28h2.35v1.36h-2.25V30.83z"/>
	<path class="st1" d="M78.04,22.98l-0.85,1.36h-1.56v-1.36H78.04z M79.34,30.83h-1.59v-6.47c0-0.46,0.2-0.83,0.6-1.11
		c0.27-0.19,0.57-0.28,0.9-0.28h2.35v1.36h-2.25V30.83z"/>
	<path class="st1" d="M84.16,27.63v1.84h4.05l0.74,1.36h-4.89c-0.5,0-0.91-0.19-1.21-0.57c-0.19-0.25-0.29-0.52-0.29-0.82v-5.09
		c0-0.46,0.2-0.83,0.6-1.11c0.27-0.19,0.57-0.28,0.9-0.28h4.89l-0.74,1.36h-4.05v1.92h3.73v1.36H84.16z"/>
	<path class="st1" d="M92.19,29.21l1.76-5.09h1.67l1.76,5.09l0.6-6.23h1.7l-0.71,6.54c-0.07,0.59-0.34,0.99-0.83,1.22
		c-0.21,0.1-0.42,0.14-0.64,0.14c-0.48,0-0.84-0.19-1.09-0.56c-0.06-0.09-0.11-0.18-0.14-0.28l-1.48-4.3l-1.47,4.3
		c-0.16,0.43-0.47,0.69-0.92,0.8c-0.11,0.03-0.22,0.04-0.32,0.04c-0.5,0-0.89-0.19-1.17-0.58c-0.16-0.23-0.25-0.49-0.29-0.79
		l-0.72-6.54h1.7L92.19,29.21z"/>
	<path class="st1" d="M104.67,30.94h-1.05c-0.85,0-1.58-0.3-2.18-0.91c-0.57-0.58-0.86-1.27-0.86-2.08v-2.09
		c0-0.84,0.3-1.55,0.91-2.14c0.6-0.57,1.31-0.85,2.13-0.85h1.05c0.85,0,1.58,0.3,2.18,0.91c0.57,0.58,0.86,1.27,0.86,2.08v2.09
		c0,0.84-0.3,1.55-0.91,2.14C106.2,30.66,105.49,30.94,104.67,30.94z M103.62,29.57h1.05c0.48,0,0.86-0.21,1.15-0.64
		c0.2-0.3,0.3-0.62,0.3-0.98v-2.09c0-0.54-0.2-0.98-0.59-1.3c-0.25-0.21-0.54-0.32-0.86-0.32h-1.05c-0.48,0-0.86,0.21-1.15,0.63
		c-0.21,0.3-0.31,0.63-0.31,0.99v2.09c0,0.54,0.19,0.97,0.58,1.29C103.01,29.46,103.3,29.57,103.62,29.57z"/>
	<path class="st1" d="M112.74,30.94h-1.05c-0.85,0-1.58-0.3-2.18-0.91c-0.57-0.58-0.86-1.27-0.86-2.08v-2.09
		c0-0.84,0.3-1.55,0.91-2.14c0.6-0.57,1.31-0.85,2.13-0.85h1.05c0.85,0,1.58,0.3,2.18,0.91c0.57,0.58,0.86,1.27,0.86,2.08v2.09
		c0,0.84-0.3,1.55-0.91,2.14C114.27,30.66,113.56,30.94,112.74,30.94z M111.69,29.57h1.05c0.48,0,0.86-0.21,1.15-0.64
		c0.2-0.3,0.3-0.62,0.3-0.98v-2.09c0-0.54-0.2-0.98-0.59-1.3c-0.25-0.21-0.54-0.32-0.86-0.32h-1.05c-0.48,0-0.86,0.21-1.15,0.63
		c-0.21,0.3-0.31,0.63-0.31,0.99v2.09c0,0.54,0.19,0.97,0.58,1.29C111.08,29.46,111.37,29.57,111.69,29.57z"/>
	<path class="st1" d="M117.04,24.36c0-0.47,0.2-0.84,0.6-1.12c0.27-0.18,0.57-0.27,0.89-0.27h2.14c0.85,0,1.58,0.3,2.18,0.91
		c0.57,0.58,0.86,1.27,0.86,2.08v1.88c0,0.84-0.3,1.55-0.91,2.14c-0.6,0.57-1.31,0.85-2.13,0.85h-3.63V24.36z M122.12,27.85v-1.88
		c0-0.54-0.2-0.98-0.59-1.3c-0.25-0.21-0.54-0.32-0.86-0.32h-2.05v5.13h2.05c0.48,0,0.86-0.21,1.15-0.64
		C122.02,28.53,122.12,28.21,122.12,27.85z"/>
</g>
<g>
	<path class="st0" d="M60.69,7.51c0.49-1.36,0.98-2.64,1.42-3.94c0.12-0.36,0.3-0.49,0.68-0.48c1.37,0.02,2.75,0.02,4.12,0
		c0.38-0.01,0.56,0.13,0.72,0.45c0.63,1.3,1.28,2.58,1.98,3.98c0.14-0.38,0.25-0.68,0.36-0.98c0.37-1.03,0.74-2.05,1.13-3.07
		c0.06-0.15,0.24-0.35,0.37-0.35c1.6-0.02,3.2-0.02,4.91-0.02c-1.44,3.93-2.85,7.8-4.29,11.74c0.28,0,0.47,0,0.65,0
		c2.17,0,4.33,0.01,6.5-0.01c0.36,0,0.57,0.09,0.73,0.43c0.65,1.35,1.33,2.68,2.01,4.01c0.05,0.09,0.08,0.18,0.14,0.33
		c-0.22,0.01-0.39,0.03-0.56,0.03c-2.2,0-4.4-0.01-6.61,0.01c-0.43,0.01-0.62-0.15-0.79-0.51c-0.67-1.38-1.36-2.74-2.1-4.21
		c-0.09,0.23-0.15,0.38-0.21,0.53c-0.47,1.27-0.92,2.55-1.41,3.81c-0.06,0.16-0.26,0.38-0.39,0.38c-1.58,0.03-3.16,0.02-4.83,0.02
		c0.16-0.46,0.29-0.85,0.43-1.24c0.51-1.42,1.04-2.84,1.54-4.27c0.06-0.17,0.12-0.4,0.05-0.55c-0.67-1.37-1.37-2.74-2.1-4.2
		c-0.32,0.87-0.61,1.65-0.9,2.43c-0.9,2.45-1.8,4.89-2.68,7.34c-0.14,0.38-0.32,0.5-0.72,0.5c-1.5-0.02-2.99-0.01-4.57-0.01
		c0.12-0.35,0.22-0.64,0.33-0.93c0.55-1.51,1.09-3.01,1.65-4.51c0.11-0.3,0.12-0.54-0.04-0.84c-0.67-1.27-1.3-2.56-1.99-3.93
		c-0.59,1.6-1.15,3.11-1.7,4.63c-0.63,1.72-1.25,3.44-1.9,5.15c-0.06,0.17-0.25,0.4-0.38,0.4c-1.6,0.03-3.2,0.02-4.86,0.02
		c0.39-1.07,0.74-2.08,1.11-3.08c1.57-4.32,3.15-8.63,4.7-12.95c0.15-0.41,0.34-0.57,0.78-0.56c1.32,0.03,2.64,0.03,3.96,0
		c0.42-0.01,0.61,0.14,0.78,0.5c0.54,1.15,1.12,2.27,1.69,3.41C60.48,7.16,60.57,7.3,60.69,7.51z"/>
</g>
</svg>
